<?xml version="1.0" standalone="no"?>
<!DOCTYPE svg PUBLIC "-//W3C//DTD SVG 20010904//EN"
 "http://www.w3.org/TR/2001/REC-SVG-20010904/DTD/svg10.dtd">
<svg version="1.0" xmlns="http://www.w3.org/2000/svg"
 width="203.000000pt" height="248.000000pt" viewBox="0 0 203.000000 248.000000"
 preserveAspectRatio="xMidYMid meet">

<g transform="translate(0.000000,248.000000) scale(0.100000,-0.100000)"
fill="#000000" stroke="none">
<path d="M1010 2450 c0 -46 -40 -174 -80 -256 -43 -89 -116 -191 -234 -329
-99 -115 -144 -183 -175 -265 -22 -56 -25 -81 -25 -180 0 -82 5 -126 16 -155
l17 -40 0 40 c2 59 26 162 54 233 43 104 112 196 281 371 201 208 231 257 231
376 -1 65 -6 90 -27 135 -14 30 -33 64 -42 75 -15 20 -15 20 -16 -5z"/>
<path d="M1160 2063 c-39 -76 -130 -177 -256 -284 -226 -192 -327 -425 -280
-649 13 -65 20 -79 53 -108 83 -74 217 -122 338 -122 289 0 525 237 525 528 0
68 -21 155 -56 232 -25 54 -102 180 -111 180 -2 0 -41 -28 -86 -63 -45 -35
-118 -89 -163 -120 -184 -128 -284 -287 -284 -450 0 -48 0 -48 48 -70 71 -32
188 -30 263 4 106 50 168 140 176 259 3 36 0 84 -6 107 l-11 42 -68 -46 c-78
-53 -130 -101 -155 -142 l-18 -30 43 18 c24 10 58 21 77 25 32 6 33 5 26 -22
-21 -87 -139 -155 -234 -136 -31 7 -32 8 -26 43 12 67 63 160 117 214 29 29
102 86 162 126 124 84 117 85 158 -18 18 -46 22 -76 23 -166 0 -103 -2 -114
-32 -177 -60 -128 -167 -204 -302 -215 -112 -9 -252 27 -308 79 -20 19 -23 31
-23 102 0 199 85 343 301 513 184 144 210 171 216 225 4 38 0 59 -27 117 -18
39 -36 71 -39 71 -3 0 -22 -30 -41 -67z"/>
<path d="M0 815 c0 -123 10 -144 92 -184 78 -38 157 -54 418 -81 300 -31 444
-71 487 -137 l15 -23 30 31 c72 72 184 101 520 134 210 20 300 39 376 76 82
40 92 61 92 185 l0 96 -41 -37 c-80 -72 -175 -98 -514 -140 -251 -32 -401 -80
-442 -142 l-16 -24 -31 32 c-66 68 -168 99 -446 135 -324 42 -417 67 -495 136
l-45 40 0 -97z"/>
<path d="M1122 830 c-87 -39 -102 -56 -102 -111 0 -27 3 -49 6 -49 3 0 18 8
32 19 15 10 50 26 77 36 28 11 53 24 57 29 8 12 4 49 -7 66 -3 5 0 10 7 10 9
0 9 3 -2 10 -19 13 -18 13 -68 -10z m40 -6 c-13 -9 -21 -22 -18 -29 2 -7 -1
-16 -9 -19 -9 -3 -12 1 -10 16 4 20 32 47 50 48 5 0 -1 -7 -13 -16z m13 -14
c-3 -5 0 -10 7 -11 10 0 10 -2 0 -6 -7 -2 -17 -14 -23 -26 -10 -21 -10 -21 5
-3 9 11 18 17 21 14 10 -9 -27 -40 -41 -34 -7 3 -14 0 -17 -7 -2 -6 -6 -3 -10
7 -4 9 -3 15 2 11 13 -7 43 24 35 37 -4 6 0 14 7 19 18 11 22 11 14 -1z"/>
<path d="M417 488 c-30 -11 -30 -16 -1 -85 14 -36 17 -38 44 -23 16 9 22 5 35
-21 16 -30 16 -32 -4 -46 -21 -14 -21 -14 11 -59 17 -24 34 -44 36 -44 3 0 14
7 24 17 17 15 20 15 43 -7 22 -21 23 -24 9 -45 -14 -21 -12 -24 18 -47 56 -42
59 -43 77 -19 15 20 20 21 44 10 24 -11 27 -17 22 -41 -7 -30 3 -37 72 -52 29
-7 33 -5 39 19 5 21 11 25 28 21 11 -3 27 -6 34 -6 6 0 12 -11 12 -24 0 -19 7
-26 29 -31 46 -10 81 3 81 31 0 13 6 24 13 24 6 0 22 3 35 6 17 5 22 2 22 -14
0 -31 16 -35 70 -17 46 15 49 18 44 44 -5 22 -1 29 21 39 23 11 29 10 44 -9
l18 -22 47 32 c46 32 47 34 30 52 -16 18 -16 20 6 44 21 22 25 23 40 10 24
-22 32 -19 67 28 33 42 33 42 13 59 -18 14 -19 20 -8 43 10 22 16 25 40 20 25
-6 30 -3 42 27 29 70 29 73 -7 86 -51 18 -62 15 -76 -25 -40 -114 -160 -247
-273 -302 -67 -33 -177 -61 -243 -61 -65 0 -176 28 -243 61 -113 55 -236 190
-271 297 -15 45 -29 50 -84 30z"/>
<path d="M580 455 c19 -20 47 -45 62 -56 l27 -20 -16 48 c-9 26 -16 49 -17 49
-1 1 -21 5 -46 9 l-45 7 35 -37z"/>
<path d="M1419 483 c-21 -3 -29 -13 -41 -54 l-16 -49 26 19 c15 11 43 35 61
55 37 38 36 39 -30 29z"/>
<path d="M690 418 c11 -28 25 -57 32 -64 11 -10 129 -55 134 -50 1 0 -5 33
-14 72 l-15 72 -55 11 c-30 6 -66 11 -79 11 l-23 0 20 -52z"/>
<path d="M1248 458 l-47 -10 -11 -56 c-6 -32 -14 -65 -16 -74 -5 -15 1 -15 58
4 77 25 83 31 108 96 l20 52 -33 -1 c-17 -1 -53 -6 -79 -11z"/>
<path d="M540 440 c0 -4 17 -33 38 -66 46 -70 119 -138 191 -177 l52 -29 -43
45 c-24 24 -52 60 -62 79 -10 19 -39 47 -63 63 -25 15 -60 42 -79 60 -19 18
-34 29 -34 25z"/>
<path d="M1451 414 c-19 -19 -53 -46 -76 -61 -23 -14 -50 -41 -60 -59 -10 -18
-38 -54 -62 -80 l-45 -46 53 28 c72 39 157 120 198 188 19 31 32 58 30 60 -2
2 -19 -12 -38 -30z"/>
<path d="M870 408 c0 -34 21 -102 34 -110 15 -10 208 -10 223 0 12 7 32 80 33
115 0 16 -2 16 -37 -2 -21 -10 -48 -33 -61 -50 -29 -40 -64 -41 -93 -2 -11 15
-38 38 -60 50 l-39 22 0 -23z"/>
<path d="M758 283 c21 -39 138 -133 165 -133 3 0 -9 27 -27 59 -26 51 -36 61
-71 71 -22 6 -48 14 -58 17 -16 4 -17 2 -9 -14z"/>
<path d="M1213 282 c-48 -16 -55 -22 -81 -74 -16 -32 -27 -58 -25 -58 27 0
144 94 164 132 12 22 9 22 -58 0z"/>
<path d="M910 255 c0 -14 40 -82 56 -96 33 -29 59 -31 88 -8 22 18 66 86 66
104 0 3 -47 5 -105 5 -58 0 -105 -2 -105 -5z"/>
</g>
</svg>
